# xmcd
# 
# Track frame offsets:
#     150
#     15844
#     29812
#     55264
#     74495
#     85565
#     101221
#     111624
#     124264
#     135717
#     147679
#     158214
#     177961
#     190613
#     203290
# 
# Disc length: 2865
# 
# Revision: 1
# Processed by: cddbd v1.5.2PL0 Copyright (c) Steve Scherf et al.
# Submitted via: fre:ac v1.0.17
# 
DISCID=d70b2f0f
DTITLE=Various Artist - Le coffret ideal BLUES – cd1
DYEAR=2012
DGENRE=Blues
TTITLE0=Screamin Jay Hawkins - I put a spell on you
TTITLE1=Buddy Guy - This old fool
TTITLE2=Ottis Rush - Gambler's blues
TTITLE3=T-Bone Walker - Evening
TTITLE4=Freddie King - Hideaway
TTITLE5=Jimmy Witherspoon - Ain't nobody business
TTITLE6=Clarence Frogman Henry - Ain't got no home
TTITLE7=Bling Boy Fuller - Money spending woman
TTITLE8=Johnny Otis - Willie and the hand jive
TTITLE9=Charles Brown - Trouble blues
TTITLE10=Sonny Terry and B Mc Ghee - Stranger blues
TTITLE11=Little Richards - Born on the bayou
TTITLE12=T-Bone Walker - Midnight blues
TTITLE13=Billie Holiday - St Louis blues
TTITLE14=John Lee Hooker - Talk about you baby
EXTD=
EXTT0=
EXTT1=
EXTT2=
EXTT3=
EXTT4=
EXTT5=
EXTT6=
EXTT7=
EXTT8=
EXTT9=
EXTT10=
EXTT11=
EXTT12=
EXTT13=
EXTT14=
PLAYORDER=
